# xmcd CD database file
#
# Track frame offsets:
#	150
#	42716
#	67537
#	94086
#	121322
#	158711
#	186327
#	213398
#	255620
#	280567
#
# Disc length: 3981 seconds
#
# Revision: 1
# Processed by: cddbd v1.5.2PL0 Copyright (c) Steve Scherf et al.
# Submitted via: CDex 1.70beta2
#
DISCID=860f8b0a
DTITLE=Salle Gaveau - La Cumparsita
DYEAR=2010
DGENRE=Jazz
TTITLE0=ラ・クンパルシータ
TTITLE1=童話で書かれた生態系
TTITLE2=悪魔にやられた悪魔
TTITLE3=雨は午後三時に
TTITLE4=影絵遊び
TTITLE5=年に三度の日曜日
TTITLE6=ロジウラのトゥランブラン
TTITLE7=行進するライナセロスヴァイパー
TTITLE8=神保町夕間暮れ
TTITLE9=ぐちゃぐちゃな秩序
EXTD=YEAR: 2010
EXTT0=
EXTT1=
EXTT2=
EXTT3=
EXTT4=
EXTT5=
EXTT6=
EXTT7=
EXTT8=
EXTT9=
PLAYORDER=
